<?xml version="1.0" standalone="no"?>
<!DOCTYPE svg PUBLIC "-//W3C//DTD SVG 1.1//EN" "http://www.w3.org/Graphics/SVG/1.1/DTD/svg11.dtd" >
<!--
2013-9-30: Created.
-->
<svg>
<metadata>
Created by iconfont
</metadata>
<defs>

<font id="iconfont" horiz-adv-x="1024" >
  <font-face
    font-family="iconfont"
    font-weight="500"
    font-stretch="normal"
    units-per-em="1024"
    ascent="896"
    descent="-128"
  />
    <missing-glyph />
    
    <glyph glyph-name="arrowup" unicode="&#59026;" d="M536.39310267 650.01977827c-1.12503625 0.5620923-2.1086978 1.54490218-3.23117907 1.96902635-20.52658897 9.84172525-45.83096251 6.60799119-62.27982731-10.82368346l-375.78170006-397.29024725c-20.52658897-21.65077358-19.54122412-55.81235918 2.10869779-76.33894817s55.81235918-19.54122412 76.33894815 2.10869781l337.26304745 356.52237374 342.18220675-355.11458803c20.66540872-21.50939885 54.82784601-22.07063948 76.33894815-1.4043791 10.96590985 10.54263732 16.58938787 24.7431329 16.58938786 38.8014021 0 13.49702854-5.06053403 26.99150212-15.18330545 37.39531966l-379.43530003 393.63494398c-0.70261538 0.70261538-1.82679998 0.98536485-2.53026703 1.82679999-0.5620923 0.5620923-0.98536485 1.12503625-1.54490219 1.82679997-3.23117909 3.23117909-7.1700835 4.78033955-10.82368347 6.88733405v0zM536.39310267 650.01977827z"  horiz-adv-x="1024" />

    
    <glyph glyph-name="arrowdown" unicode="&#58944;" d="M464.6 160C346 282.70000000000005 227.3 405.5 108.8 528.2c-48.9 50.5 30.5 125.9 79.5 75.1C293.9 494.1 399.4 384.8 505 275.70000000000005 614.2 385.4 723.6 495.2 832.8 605c49.7 50 129.1-25.4 79.5-75.2C789.6 406.5 666.9 283.29999999999995 544.2 160c-20.4-20.4-59.4-20.9-79.6 0z"  horiz-adv-x="1024" />

    
    <glyph glyph-name="chakan" unicode="&#59205;" d="M614.375 776.39c-322.6 0-586.55-303.4-586.55-404.51 0-134.875 263.95-404.525 586.55-404.525 322.575 0 586.6 303.35 586.6 404.525-0.005 101.11-264.025 404.51-586.6 404.51z m0-741.64c-286.76 0-521.35 269.7-521.35 337.125S327.61 708.95 614.375 708.95c286.775 0 521.375-269.65 521.375-337.075S901.15 34.75 614.375 34.75z m0 118.05c-117.35 0-211.785 97.725-211.785 219.075 0 121.36 94.435 219.11 211.785 219.11 117.325 0 211.8-97.75 211.8-219.11 0-121.35-94.475-219.075-211.8-219.075z m0 370.75c-81.475 0-146.61-67.435-146.61-151.675 0-84.3 65.135-151.7 146.61-151.7s146.6 67.4 146.6 151.7c0 84.24-65.125 151.675-146.6 151.675z"  horiz-adv-x="1229" />

    
    <glyph glyph-name="shanchu" unicode="&#58928;" d="M585.323 128.048V530.327c0 46.845 73.34 46.845 73.34 0v-402.279c0-46.91-73.34-46.91-73.34 0z m-220.018 0V530.327c0 46.845 73.34 46.845 73.34 0v-402.279c0-46.91-73.34-46.91-73.34 0z m623.45 585.115h-183.35v73.148C805.406 846.915 756.13 896 696.486 896h-367.85C267.84 896 218.562 846.915 218.562 786.31v-73.147H35.342c-47.101 0-47.101-73.147-0.128-73.147h953.54c46.91 0 46.91 73.083 0 73.083z m-696.79 73.148c0 19.455 17.216 36.606 36.67 36.606h367.85a35.198 35.198 0 0 0 35.517-36.606v-73.148H291.966v73.148z m476.771-914.247H255.232a109.881 109.881 0 0 0-110.01 109.69V530.326c0 21.694 17.216 36.542 36.67 36.542 19.455 0 36.67-14.848 36.67-36.542v-548.574c0-19.39 17.215-36.542 36.67-36.542h513.376a37.694 37.694 0 0 1 36.734 36.478V529.24c0 47.997 73.275 47.997 73.275 0v-547.422c0-60.604-49.277-109.689-110.009-109.689z"  horiz-adv-x="1024" />

    
    <glyph glyph-name="guanbi" unicode="&#58901;" d="M589.824 384L998.4 792.576c20.48 20.48 20.48 54.784 0 75.264l-2.56 2.56c-20.48 20.48-54.784 20.48-75.264 0L512 460.8 103.424 870.4c-20.48 20.48-54.784 20.48-75.264 0l-2.048-2.56C5.12 847.36 5.12 813.568 26.112 792.576L434.688 384 26.112-24.576000000000022c-20.48-20.48-20.48-54.784 0-75.264l2.048-2.048c20.48-20.48 54.784-20.48 75.264 0l408.576 408.576 408.576-408.576c20.48-20.48 54.784-20.48 75.264 0l2.048 2.048c20.48 20.48 20.48 54.784 0 75.264L589.824 384z"  horiz-adv-x="1024" />

    
    <glyph glyph-name="tixing1" unicode="&#58939;" d="M511.470345 895.611586C230.4 895.611586 0.388414 665.63531 0.388414 384.529655c0-281.070345 229.976276-511.081931 511.081931-511.081931 281.070345 0 511.081931 229.976276 511.081931 511.081931 0 281.070345-229.976276 511.081931-511.081931 511.081931z m0-971.034483c-252.96331 0-459.952552 206.953931-459.952552 459.952552 0 252.96331 206.989241 459.952552 459.952552 459.952552S971.422897 637.528276 971.422897 384.529655c0-252.998621-206.989241-459.952552-459.952552-459.952552zM460.376276 640.070621a51.094069 51.094069 0 0 1 102.188138 0 51.094069 51.094069 0 0 1-102.188138 0zM511.470345 512.282483c-28.107034 0-51.094069-22.951724-51.094069-51.094069v-306.635035c0-28.107034 22.987034-51.129379 51.094069-51.129379s51.094069 23.022345 51.094069 51.129379v306.635035c0 28.107034-22.951724 51.094069-51.094069 51.094069z"  horiz-adv-x="1024" />

    
    <glyph glyph-name="caidan" unicode="&#58926;" d="M81.13493333 629.1319466699999h861.53329778c22.50752 0 40.90424889 18.39672889 40.90424889 40.90311111 0 22.50752-18.20103111 40.90538667-40.90311111 40.90538667H81.13493333c-22.50752 0-40.90424889-18.39786667-40.90424888-40.9042489 0-22.50752 18.39786667-40.90424889 40.9031111-40.90424888z m861.53329778-204.32554667H81.13607111c-22.50752 0-40.90424889-18.39786667-40.90424889-40.90424889 0-22.50752 18.39786667-40.90424889 40.90311111-40.90424889h861.53329778c22.50752 0 40.90424889 18.39786667 40.90424889 40.90424889 0 22.50752-18.39786667 40.90311111-40.90311111 40.90311111z m0-285.93834667H81.13607111c-22.50752 0-40.90424889-18.20103111-40.90424889-40.90311111s18.39786667-40.90538667 40.90311111-40.90538667h861.53329778c22.50752 0 40.90424889 18.20216889 40.90424889 40.9042489s-18.39786667 40.90424889-40.90311111 40.90424888z"  horiz-adv-x="1024" />

    
    <glyph glyph-name="sousuo" unicode="&#58932;" d="M980.07466667-29.461333330000002L800.65066667 149.82399999999996c68.9568 79.71413333 106.74453333 180.3904 106.74453333 286.72 0 117.22666667-45.64906667 227.41866667-128.5344 310.16533333S585.78346667 875.38133333 468.69546667 875.38133333c-117.2256 0-227.4176-45.648-310.16533334-128.53333333-82.88533333-82.88533333-128.53333333-193.07733333-128.53333333-310.16533333 0-117.22666667 45.648-227.4176 128.53333333-310.16533334 82.88533333-82.88533333 193.07733333-128.53333333 310.16533334-128.53333333 96.81493333 0 188.80213333 31.168 264.65386666 88.67626667l181.49333334-181.49333334c8.96426667-8.9632 20.82453333-13.51466667 32.6848-13.51466666s23.584 4.55146667 32.6848 13.51466666c17.9296 18.0672 17.9296 47.30453333-0.1376 65.37173334zM122.2592 436.68266667c0 191.008 155.4272 346.2976 346.29866667 346.2976 191.008 0 346.2976-155.4272 346.2976-346.2976 0.13866667-191.008-155.15093333-346.43626667-346.16-346.43626667S122.2592 245.67466666999997 122.2592 436.68266667z m0 0"  horiz-adv-x="1024" />

    
    <glyph glyph-name="tuichu" unicode="&#58933;" d="M915.584 416L795.776 540.352a32 32 0 1 0 46.08 44.416l165.568-171.84a32 32 0 0 0 7.232-32.512 31.872 31.872 0 0 0-7.552-12.928l-165.568-171.84a32 32 0 1 0-46.08 44.416L903.296 352H474.24a32 32 0 0 0 0 64h441.344zM713.6 128a32 32 0 1 0 64 0v-127.552A64.64 64.64 0 0 0 713.472-64H73.728C38.4-64 9.6-35.200000000000045 9.6 0.4479999999999791V767.552A64.64 64.64 0 0 0 73.728 832h639.744c35.392 0 64.128-28.8 64.128-64.448V640a32 32 0 1 0-64 0v96c0 17.344-14.592 32-32.64 32H106.24a32.32 32.32 0 0 1-32.64-32v-704c0-17.344 14.592-32 32.64-32h574.72c18.048 0 32.64 14.336 32.64 32v96z"  horiz-adv-x="1024" />

    
    <glyph glyph-name="tixing" unicode="&#58938;" d="M512 384m-512 0a512 512 0 1 1 1024 0 512 512 0 1 1-1024 0ZM374.447761 408.835821l-24.835821 19.104478c38.208955 40.119403 70.686567 70.686567 101.253732 87.880597 30.567164 17.19403 57.313433 26.746269 78.328358 26.746268 11.462687 0 21.014925-1.910448 26.746269-7.641791 5.731343-5.731343 9.552239-11.462687 9.552238-21.014925 0-11.462687-11.462687-57.313433-36.298507-137.552239-40.119403-131.820896-59.223881-212.059701-59.223881-238.80597 0-5.731343 1.910448-9.552239 3.820896-13.373135s5.731343-5.731343 7.641791-5.731343c11.462687 0 42.029851 22.925373 91.701492 68.77612l21.014926-21.014926c-51.58209-47.761194-87.880597-78.328358-112.716418-91.701492s-42.029851-21.014925-57.313433-21.014926c-13.373134 0-22.925373 3.820896-30.567164 11.462687-7.641791 7.641791-11.462687 19.104478-11.462687 34.38806 0 45.850746 28.656716 160.477612 84.059702 341.970149 1.910448 7.641791 3.820896 15.283582 3.820895 22.925373 0 7.641791-3.820896 11.462687-9.552239 11.462687-7.641791 0-15.283582-3.820896-24.83582-9.552239-7.641791-5.731343-28.656716-24.835821-61.134329-57.313433zM594.149254 779.462687c11.462687 0 21.014925-3.820896 28.656716-11.462687 7.641791-7.641791 11.462687-17.19403 11.462687-28.656716 0-17.19403-5.731343-30.567164-17.19403-43.940299-11.462687-13.373134-24.835821-19.104478-38.208955-19.104478-11.462687 0-21.014925 3.820896-28.656717 11.462687s-11.462687 17.19403-11.462686 30.567164c0 17.19403 5.731343 30.567164 15.283582 42.029851s26.746269 19.104478 40.119403 19.104478z"  horiz-adv-x="1025" />

    
    <glyph glyph-name="chenggong" unicode="&#58906;" d="M426.07502222 294.87104l-120.14933333 120.00369778a48.56945778 48.56945778 0 1 1-68.59434667-68.59434667L387.4816 196.05731555a47.76846222 47.76846222 0 0 1 5.31569778-5.09724444c16.60245333-14.63637333 40.85077333-16.01991111 58.83676444-3.93216A50.24426667 50.24426667 0 0 1 459.20711111 192.85333333000005l332.04906667 312.38826667a47.04028445 47.04028445 0 0 1 1.09226667 67.57489778 50.02581333 50.02581333 0 0 1-69.68661334 1.01944889L426.00220445 294.87104zM512 893.72444445a509.72444445 509.72444445 0 1 0 0-1019.4488889 509.72444445 509.72444445 0 0 0 0 1019.4488889z"  horiz-adv-x="1024" />

    
    <glyph glyph-name="cuowu" unicode="&#58907;" d="M509.514 890.43C227.954 890.43 0 662.477 0 381.514 0 100.053 227.953-128 509.514-128c281.46 0 508.916 227.953 508.916 509.514 0 280.963-227.953 508.916-508.916 508.916z m222.781-663.67c19.195-19.195 19.195-49.43 0-68.625s-49.43-19.195-68.624 0L508.917 312.29200000000003 354.163 157.538c-19.195-19.195-50.026-19.195-68.625 0-19.195 19.195-19.195 49.43 0 68.625l154.754 154.754-154.157 154.157c-19.195 19.195-19.195 49.43 0 68.625s49.43 19.195 68.625 0l154.754-154.754 154.753 154.754c19.195 19.195 49.43 19.195 68.625 0 19.195-19.196 19.195-49.43 0-68.625l-154.754-153.56L732.295 226.76z"  horiz-adv-x="1024" />

    
    <glyph glyph-name="shijian" unicode="&#58908;" d="M512 896c-2.88 0-5.762 0-8.499-0.144H520.5C517.618 896 514.737 896 512 896z m511.208-502.853v-16.853c0 2.88 0.144 5.617 0.144 8.498 0 2.737 0 5.474-0.144 8.355zM520.499 895.856H503.5C224.203 891.391 0.648 664.956 0.648 384.648c0-283.188 230.757-511.352 511.352-511.352 280.307 0 506.742 223.555 511.208 502.854v16.853C1018.742 669.565 794.468 891.39 520.498 895.856z m295.287-741.244c-21.03-28.665-61.65-35.002-90.315-13.972L463.314 332.793c-17.286 12.676-26.36 32.41-26.36 52.287V673.31c0 35.578 29.096 64.675 64.675 64.675s64.675-29.097 64.675-64.675v-255.82l235.51-172.563c28.665-20.886 34.858-61.65 13.972-90.315z"  horiz-adv-x="1024" />

    
    <glyph glyph-name="shuju" unicode="&#58929;" d="M971.19634211 153.02407993999998v578.13300048a36.11598098 36.11598098 0 0 1 30.11976205 35.50942994 36.06399257 36.06399257 0 0 1-35.96000973 35.96000978h-909.74495616a36.06399257 36.06399257 0 0 1-35.96001583-35.96000978c0-19.77367294 16.18633693-35.96000977 35.96001583-35.96000978h3.13675007v-577.57843791h-0.55456261c-19.77367294 0-35.96000977-16.18633693-35.96000989-35.96000978s16.18633693-35.96000977 35.96000989-35.96000985h418.90380146v-75.9579416h-79.21600797a36.06399257 36.06399257 0 0 1-35.96000988-35.96001584c0-19.77367294 16.18633693-35.96000977 35.96000988-35.96000979h225.29163753a36.06399257 36.06399257 0 0 1 35.96000962 35.96000979 36.06399257 36.06399257 0 0 1-35.96000962 35.96001584h-74.17293732v75.9579416h418.92112884a36.06399257 36.06399257 0 0 1 35.96001588 35.96000985 36.09865351 36.09865351 0 0 1-32.68462204 35.85602705z m-840.52843415 577.68242064h768.60841451v-577.57843791h-768.60841451v577.57843791z m0 0M250.67903081 281.23235093000005a35.89068788 35.89068788 0 0 0-24.73008821 62.02452247l161.81138642 152.81704906a35.83869953 35.83869953 0 0 0 47.53653463 1.57704494l98.66040502-81.24363278 208.44675529 204.96340195a36.01200417 36.01200417 0 0 0 50.44799773-51.36649714l-231.47849438-227.6485319a35.96000977 35.96000977 0 0 0-48.09109732-2.13160746l-99.11099113 81.57290239-138.77964717-130.79045856a36.01200417 36.01200417 0 0 0-24.71276088-9.77419297z m0 0"  horiz-adv-x="1024" />

    
    <glyph glyph-name="dakaixiangmu" unicode="&#58881;" d="M1015.1968 466.48533333c-8.54613333 12.1056-22.32533333 19.33226667-36.85973333 19.33226667H867.3888V644.49386667c0 25.95093333-20.46933333 47.06453333-45.632 47.06453333H467.8912l-81.62133333 91.78346667c-8.6112 9.6832-20.87146667 15.23626667-33.63626667 15.23626666H45.632c-25.1616 0-45.632-21.11253333-45.632-47.06346666v-740.71466667c0-18.9312 15.33546667-34.28266667 34.2656-34.3008l796.24746667-0.7904c19.15093333 0 36.4512 12.48 43.05066666 31.05386667l147.616 415.49973333c5.29066667 14.89066667 3.05386667 31.4208-5.98293333 44.22186667zM68.26666667 111.07733332999999V730.31146667h273.80693333l81.6192-91.78133334c8.6112-9.68426667 20.87253333-15.2384 33.63946667-15.2384h341.78986666v-137.47413333H262.63466667c-17.93813333 0-34.3232-10.89813333-41.744-27.76533333L68.26666667 111.07946666999999z m746.06933333-67.104H113.33013333L277.65333333 417.552h669.408L814.336 43.975466669999946z"  horiz-adv-x="1024" />

    
    <glyph glyph-name="shenpi-xianxing" unicode="&#58988;" d="M896-32H128a32.064 32.064 0 0 0-32 32c0 17.6 14.4 32 32 32h768c17.6 0 32-14.4 32-32s-14.4-32-32-32z m0 128H128a32.064 32.064 0 0 0-32 32V288C96 340.8 139.2 384 192 384h204.8c-6.4 38.4-25.6 75.2-52.8 107.2A223.616 223.616 0 0 0 288 640c0 60.8 24 118.4 68.8 161.6 44.8 43.2 102.4 64 164.8 62.4 115.2-4.8 212.8-104 214.4-219.2 1.6-57.6-20.8-113.6-59.2-156.8-27.2-28.8-43.2-64-49.6-104H832c52.8 0 96-43.2 96-96V128c0-17.6-14.4-32-32-32z m-736 64h704v128c0 17.6-14.4 32-32 32H592a32.064 32.064 0 0 0-32 32c0 67.2 24 131.2 68.8 179.2 28.8 30.4 43.2 70.4 43.2 112-1.6 83.2-70.4 153.6-153.6 156.8-44.8 1.6-86.4-14.4-116.8-44.8A158.656 158.656 0 0 1 352 640c0-38.4 14.4-76.8 40-105.6 46.4-52.8 72-116.8 72-182.4 0-17.6-14.4-32-32-32H192c-17.6 0-32-14.4-32-32v-128z"  horiz-adv-x="1024" />

    
    <glyph glyph-name="zhanghao" unicode="&#58899;" d="M1072.709189-43.644541c-33.044757 161.792-150.887784 293.030054-304.875243 345.171027C857.890595 353.058595 918.832432 450.089514 918.832432 561.124324c0 164.836324-134.060973 298.897297-298.897297 298.897298s-298.897297-134.060973-298.897297-298.897298c0-111.034811 60.941838-208.06573 151.053838-259.597838-153.987459-52.140973-271.830486-183.379027-304.875244-345.171027-4.206703-20.646054 11.45773-40.074378 32.546595-40.074378 15.664432 0 29.336216 10.959568 32.491243 26.291892C268.896865 123.129081 428.751568 259.459459 619.935135 259.459459s351.03827-136.330378 387.736216-316.886486c3.099676-15.387676 16.771459-26.291892 32.491244-26.291892 21.088865 0 36.753297 19.372973 32.546594 40.074378zM387.459459 561.124324c0 128.19373 104.281946 232.475676 232.475676 232.475676s232.475676-104.281946 232.475676-232.475676-104.281946-232.475676-232.475676-232.475675-232.475676 104.281946-232.475676 232.475675z"  horiz-adv-x="1250" />

    
    <glyph glyph-name="shouye-weixuan" unicode="&#58887;" d="M844.3-63.1H179.6c-51.4 0-93.3 39.4-93.3 87.7V483.2c0 15.5 4.4 30.8 12.6 44.1 4.7 8.5 11.2 16.2 19.5 22.8L446.2 809.7c35.6 28.2 95.9 28.2 131.5 0l327.7-259.6c8.3-6.6 14.8-14.2 19.5-22.8 8.3-13.4 12.6-28.6 12.6-44.1v-458.5c0-48.4-41.8-87.8-93.2-87.8z m-671.1 88.9c0.8-0.7 2.9-2.1 6.5-2.1h664.6c3.5 0 5.7 1.3 6.5 2.1V482.2l-0.6 0.9-326.4 258.6c-4.5 3.3-19.2 3.3-23.8 0L173.8 483.2l-0.6-0.9v-456.5z m678.3 456.3zM701.3 122.4H322.7c-24 0-43.4 19.4-43.4 43.4s19.4 43.4 43.4 43.4h378.6c24 0 43.4-19.4 43.4-43.4-0.1-24-19.5-43.4-43.4-43.4z"  horiz-adv-x="1024" />

    
    <glyph glyph-name="mima" unicode="&#58981;" d="M786.673 467.546c40.237 0 72.885-32.707 72.885-72.945v-340.329a72.885 72.885 0 0 0-72.885-73.005h-534.89a72.885 72.885 0 0 0-72.884 72.945v340.33c0 40.357 32.587 73.004 72.885 73.004h534.889m0 72.885h-534.89a145.89 145.89 0 0 1-145.89-145.83v-340.329a145.89 145.89 0 0 1 145.89-145.89h534.83a145.89 145.89 0 0 1 145.89 145.83v340.33a145.89 145.89 0 0 1-145.89 145.89zM519.228 807.876A170.165 170.165 0 0 0 689.393 637.71v-97.28h-340.33v97.28A170.165 170.165 0 0 0 519.229 807.876m0 72.884a243.11 243.11 0 0 1-243.11-243.049v-170.165h486.28V637.591a243.11 243.11 0 0 1-243.17 243.29z m0-765.77a36.442 36.442 0 0 0-36.442 36.442v145.89a36.442 36.442 0 0 0 72.885 0v-145.89c0-20.12-16.264-36.383-36.443-36.383v-0.06z"  horiz-adv-x="1024" />

    
    <glyph glyph-name="daping" unicode="&#58892;" d="M864 108.79999999999995H160c-51.2 0-96 44.8-96 96V672c0 51.2 44.8 96 96 96h704c51.2 0 96-44.8 96-96v-467.2c0-57.6-44.8-96-96-96zM160 704c-19.2 0-32-12.8-32-32v-467.2c0-19.2 12.8-32 32-32h704c19.2 0 32 12.8 32 32V672c0 19.2-12.8 32-32 32H160z m768-704H96c-19.2 0-32 12.8-32 32s12.8 32 32 32h832c19.2 0 32-12.8 32-32s-12.8-32-32-32zM204.8 492.8c-19.2 0-32 12.8-32 32v96c0 19.2 12.8 32 32 32h102.4c12.8 0 32-12.8 32-32s-19.2-32-32-32h-70.4v-70.4c0-12.8-12.8-25.6-32-25.6z m102.4-275.2H204.8c-19.2 0-32 12.8-32 32V352c0 12.8 12.8 32 32 32s32-12.8 32-32v-70.4h70.4c19.2 0 32-12.8 32-32s-19.2-32-32-32zM819.2 492.8c-19.2 0-32 12.8-32 32v64h-70.4c-19.2 0-32 12.8-32 32s12.8 32 32 32h102.4c19.2 0 32-12.8 32-32v-102.4c0-12.8-12.8-25.6-32-25.6z m0-275.2H716.8c-19.2 0-32 12.8-32 32s12.8 32 32 32h70.4V352c0 19.2 12.8 32 32 32s32-12.8 32-32v-102.4c0-19.2-12.8-32-32-32z"  horiz-adv-x="1024" />

    
    <glyph glyph-name="rizhi" unicode="&#58904;" d="M528 651.328l126.72-126.72 88 88-126.72 126.72-87.936-88z m72.448-180.992l-126.72 126.72L204.8 328v-126.72h126.72L600.448 470.4z m-11.584 350.4a38.4 38.4 0 0 0 54.272 0l181.056-180.992a38.4 38.4 0 0 0 0-54.336l-449.6-449.6a38.4 38.4 0 0 0-27.2-11.264H166.4a38.4 38.4 0 0 0-38.4 38.4V344a38.4 38.4 0 0 0 11.264 27.136L588.8 820.736zM102.4 64h819.2a38.4 38.4 0 0 0 0-76.8H102.4a38.4 38.4 0 0 0 0 76.8z"  horiz-adv-x="1024" />

    
    <glyph glyph-name="xiangmu" unicode="&#58886;" d="M417.4848 730.624v-252.1088H165.376V730.624h252.0576zM448.9728 793.6H133.888C114.9952 793.6 102.4 781.0048 102.4 762.112V446.976c0-18.944 12.5952-31.5392 31.488-31.5392H449.024c18.944 0 31.5392 12.6464 31.5392 31.5392V762.112c0 18.8928-12.6464 31.488-31.5392 31.488z m409.6-62.976v-252.1088h-252.0576V730.624h252.0576zM890.112 793.6H574.976c-18.944 0-31.5392-12.5952-31.5392-31.488V446.976c0-18.944 12.6464-31.5392 31.5392-31.5392h315.0848c18.8928 0 31.488 12.6464 31.488 31.5392V762.112c0 18.8928-12.5952 31.488-31.488 31.488z m-31.5392-504.1152v-252.0576h-252.0576v252.0576h252.0576z m31.5392 62.976H574.976c-18.944 0-31.5392-12.5952-31.5392-31.488v-315.0848c0-18.8928 12.6464-31.488 31.5392-31.488h315.0848c18.8928 0 31.488 12.5952 31.488 31.488V321.024c0 18.944-12.5952 31.5392-31.488 31.5392z m-472.6272-62.976v-252.0576H165.376v252.0576h252.0576z m31.488 62.976H133.888c-18.8928 0-31.488-12.5952-31.488-31.488v-315.0848c0-18.8928 12.5952-31.488 31.488-31.488H449.024c18.944 0 31.5392 12.5952 31.5392 31.488V321.024c0 18.944-12.6464 31.5392-31.5392 31.5392z"  horiz-adv-x="1024" />

    


  </font>
</defs>
</svg>
